<?xml version="1.0" encoding="utf-8"?>
<!DOCTYPE svg PUBLIC "-//W3C//DTD SVG 20010904//EN" "http://www.w3.org/TR/2001/REC-SVG-20010904/DTD/svg10.dtd">
<svg version="1.0" xmlns="http://www.w3.org/2000/svg" width="1694px" height="1869px" viewBox="0 0 1694 1869" preserveAspectRatio="xMidYMid meet">
 <g fill="#ffffff">
  <path d="M64.6 1867.9 c-18.6 -2.7 -31.7 -8.8 -42.6 -19.8 -8 -8.1 -12.6 -15.2 -16.7 -25.3 -5.4 -13.2 -5.4 -13.7 -5 -128.9 0.3 -119.1 -0.2 -110.1 7.7 -126.4 9.3 -18.8 26.7 -33 47.7 -38.7 11.6 -3.1 33.7 -3.2 44.6 0 20.4 5.8 35.9 18.5 45.6 37.2 7.1 13.6 10.1 28.1 10.1 48.7 l0 10.3 -23.9 0 -23.9 0 -0.4 -13.2 c-0.3 -11.9 -0.6 -13.9 -3 -19.1 -6.4 -13.6 -13.8 -18.7 -27.3 -18.7 -4.8 0 -10.1 0.7 -12.8 1.6 -8.8 3 -14.8 12.9 -16.7 27.8 -1.3 9.8 -1.3 183.3 0 191.6 1.5 9.7 6.4 18.8 12 22.2 12.8 7.9 33.8 4.1 41.7 -7.6 4.9 -7.2 6.3 -13.2 6.3 -26.8 l0 -11.8 24.1 0 24.2 0 -0.6 15.8 c-0.6 18.1 -2.6 27.1 -8.3 38.4 -4.8 9.7 -8.9 15.2 -17.3 23.1 -17.8 16.7 -39.9 23.3 -65.5 19.6z"/>
  <path d="M278.2 1867.9 c-25.2 -4.2 -48.7 -21.5 -59.2 -43.4 -1.7 -3.5 -4.1 -9.9 -5.3 -14.2 l-2.2 -7.8 0 -103.5 c0 -97.3 0.1 -104 1.9 -111.5 7.2 -31.4 30.9 -53.7 63.5 -59.9 10.4 -2 18.4 -2 29.6 -0.1 32.1 5.6 54.8 26.3 63.7 58 2.2 8 2.2 8 2.6 105.5 0.3 104.2 0.1 111.4 -4.4 124.9 -7.1 21.3 -24.8 39.4 -46.5 47.5 -13.3 5 -30.2 6.7 -43.7 4.5z m27.4 -49 c7 -2.6 12.7 -7.9 16.1 -14.7 l2.8 -5.7 0 -101 0 -101 -2.8 -5.7 c-5.4 -11.1 -15.6 -16.8 -29.7 -16.8 -14.1 0 -25.2 6.3 -30.1 17.2 l-2.4 5.3 0 101 0 101 2.4 5.2 c6.7 14.9 26.1 21.6 43.7 15.2z"/>
  <path d="M883.8 1868 c-22.1 -3.5 -37.7 -12.1 -48.7 -26.8 -6.5 -8.7 -10.5 -16.7 -13.3 -26.7 l-2.3 -8 0 -108 c0 -122.1 -0.6 -113.2 8.2 -131.4 3.8 -7.9 5.8 -10.7 13.1 -18 4.8 -4.7 11.3 -10.1 14.5 -12 20.3 -11.9 48.2 -14.3 71.1 -6.2 16.2 5.7 31.4 19.7 40 36.8 1.4 2.8 3.8 9.1 5.2 14 2.3 7.6 2.7 11.2 3.1 26.1 l0.6 17.2 -23.7 0 -23.6 0 0 -7.7 c-0.1 -21.6 -6.2 -35.2 -18.5 -40.9 -4 -1.9 -6.7 -2.4 -13.5 -2.4 -14.4 0 -21.3 4.7 -26.3 17.6 l-2.2 5.9 0 101 0 101 2.9 6.3 c5.1 11.1 12.5 15.4 26.2 15.4 9.1 0 17.9 -3.6 23 -9.5 5.4 -6.4 7.4 -13.1 8.1 -27.8 l0.6 -12.9 23.5 0 23.4 0 -0.5 16.8 c-0.5 18.6 -1.6 24.2 -7.3 36.2 -9.6 20.3 -29.2 37.1 -49.9 42.6 -7.1 1.9 -25.7 2.6 -33.7 1.4z"/>
  <path d="M1598.5 1867.5 c-26.7 -4.9 -50.4 -23.6 -59.9 -47.1 -5.8 -14.1 -5.7 -12.5 -5.4 -125.9 0.4 -117 -0.2 -107.8 8.3 -125 7.9 -16.1 18.4 -26.4 35 -34.5 14.3 -6.9 21.2 -8.4 37.5 -8.4 11.6 0.1 14.7 0.5 22.3 2.8 16.7 5 30.2 13.4 39.3 24.4 7.7 9.4 14 22.7 16.5 34.6 1.9 9.4 2 13.3 1.7 112.9 -0.4 116.1 0.2 107 -8.2 124.2 -15.3 31.1 -51.6 48.6 -87.1 42z m22.3 -47 c10.2 -1.3 20.4 -9.8 23.8 -19.6 1.8 -5.1 1.9 -9.9 1.9 -103.4 0 -93.5 -0.1 -98.3 -1.9 -103.4 -2.3 -6.6 -8.3 -13.4 -15.1 -16.9 -4.5 -2.5 -6 -2.7 -16 -2.7 -9.7 0 -11.5 0.3 -15.5 2.4 -7.9 4.2 -10.9 7.1 -14.2 13.9 l-3.3 6.7 0 100 0 100 3.3 6.7 c3.3 6.8 6.5 9.9 13.9 13.7 4.3 2.2 13.2 4 16.8 3.5 1.1 -0.1 3.9 -0.5 6.3 -0.9z"/>
  <path d="M434 1697.5 l0 -168.5 24 0 24 0 0 145 0 145 48 0 48 0 0 23.5 0 23.5 -72 0 -72 0 0 -168.5z"/>
  <path d="M628 1697.5 l0 -168.5 72 0 72 0 0 22.5 0 22.5 -48 0 -48 0 0 50 0 50 41.5 0 41.5 0 0 22 0 22 -41.5 0 -41.5 0 0 50.5 0 50.5 48 0 48 0 0 23.5 0 23.5 -72 0 -72 0 0 -168.5z"/>
  <path d="M1065 1720 l0 -146 -28 0 -28 0 0 -22.5 0 -22.5 80 0 80 0 0 22.5 0 22.5 -28 0 -28 0 0 146 0 146 -24 0 -24 0 0 -146z"/>
  <path d="M1211 1697.5 l0 -168.5 23.5 0 23.5 0 0 168.5 0 168.5 -23.5 0 -23.5 0 0 -168.5z"/>
  <path d="M1376 1865.3 c0 -0.5 -15.3 -75.9 -34 -167.7 -18.7 -91.8 -34 -167.3 -34 -167.7 0 -0.5 11.2 -0.9 24.9 -0.9 l24.9 0 1 5.8 c0.6 3.1 9.2 56.1 19.2 117.7 10.1 61.6 18.4 112.2 18.6 112.4 0.2 0.2 0.7 0.1 1.1 -0.2 0.5 -0.6 39.1 -231.5 39.3 -234.9 0 -0.5 11.3 -0.8 25 -0.8 19.4 0 25 0.3 25 1.3 0 0.6 -15.5 76.4 -34.3 168.2 l-34.3 167 -21.2 0.3 c-11.7 0.1 -21.2 -0.1 -21.2 -0.5z"/>
  <path d="M806.5 1280.9 c-155.6 -10.1 -301 -75.8 -411.4 -185.8 -91 -90.8 -152 -204.3 -177 -329.6 -8.4 -42.4 -11.5 -74.8 -11.5 -123.5 -0.1 -49.8 2.7 -80.3 11.5 -125 28.1 -143.1 104.8 -272.4 217.9 -367.4 217.5 -182.7 530.3 -199.7 766.5 -41.6 142 95 240.7 242.7 273.4 409 8.8 44.7 11.6 75.2 11.5 125 0 40.3 -1.2 57.6 -6 91 -14.5 100.4 -53.1 196.5 -111.9 278.9 -106.5 149.2 -270.2 246 -450 266 -36 4 -79.4 5.1 -113 3z m97.5 -92.3 c127.5 -14.2 242.4 -69.2 331.9 -158.7 44.4 -44.3 78.1 -91.7 106.2 -149.3 17.4 -35.7 29.2 -68.2 38.7 -106.2 11.4 -45.7 16.2 -85 16.2 -133.4 0 -14 -0.5 -31.8 -1.1 -39.5 -8.5 -114.5 -50.4 -219.3 -123.9 -309.7 -16.4 -20.2 -55.7 -59.5 -75.9 -75.8 -36.5 -29.6 -69.1 -50.5 -110.1 -70.3 -63.5 -30.8 -129.6 -48.5 -200.5 -53.7 -18 -1.3 -59 -1.3 -77 0 -114.7 8.4 -219.8 50.3 -310.6 124 -20.2 16.3 -59.5 55.6 -75.9 75.8 -73.5 90.4 -115.4 195.2 -123.9 309.7 -1.4 17.8 -1.4 61 -0.1 78.5 4.3 56.5 16.9 111.9 37.4 164 7.1 18 24.8 54.3 35.1 72.1 71.3 123.2 188.8 215 325 254 37.3 10.6 69.8 16.4 115.5 20.3 12.1 1 79.3 -0.3 93 -1.8z"/>
  <path d="M679 968.4 c-1.4 -0.2 -5.9 -0.9 -10 -1.5 -8.6 -1.3 -23.1 -5.7 -32.6 -10 -23.9 -10.7 -46.9 -33.8 -58.9 -59.2 -8.5 -18 -11.5 -34 -11.5 -61.9 l0 -18.8 42 0 42 0 0 14.8 c0 22.5 3.2 32.4 13.2 41.8 8.7 8.1 21 12.1 34.3 11.1 18.4 -1.4 30.8 -12 35 -30.1 1.4 -5.8 1.5 -17.2 1.3 -85.9 l-0.3 -79.2 -3.6 -7.5 c-6.8 -14.3 -18.4 -22.6 -33.1 -23.7 -18.1 -1.4 -33 7.2 -42.3 24.3 l-4.6 8.4 -37 0 -36.9 0 0 -159.5 0 -159.5 121 0 121 0 0 39.5 0 39.5 -84 0 -84 0 0 80 c0 44 0.4 80 0.8 80 0.5 0 1.9 -1.2 3.3 -2.6 3.6 -3.9 14.8 -11 23.5 -15 31.3 -14.5 74.2 -11.6 101.4 6.9 6.8 4.6 17.7 15.5 22.2 22.1 8 11.6 13.6 28 15.8 45.6 0.6 5.3 1 42 1 97.5 0 94.9 -0.2 98.1 -5 115.5 -5.2 18.3 -17.4 38.3 -32.5 52.9 -17.6 17 -38 27.7 -62.5 32.6 -7.3 1.5 -34.1 2.8 -39 1.9z"/>
  <path d="M984.2 967.8 c-10.3 -1.3 -28.3 -6 -37.3 -9.7 -34.1 -14.2 -59.8 -45.4 -68 -82.6 -2 -9 -2.2 -13.6 -2.6 -45.2 l-0.5 -35.3 42.1 0 42.1 0 0 25.8 c0 19.9 0.3 27.1 1.5 31.7 3.6 13.6 13.1 25.2 24.3 29.6 4.6 1.9 7.6 2.3 16.2 2.3 8.6 0 11.6 -0.4 16.2 -2.3 7.4 -2.9 15.6 -10.4 19.6 -17.9 6.2 -11.6 6.4 -13.4 6 -76.1 -0.4 -62.4 -0.4 -61.9 -7 -74.2 -3.2 -6.1 -6.5 -9.2 -13.3 -12.6 -6.3 -3.2 -13.8 -4.4 -30.7 -5 l-15.8 -0.6 0 -36.8 c0 -28.9 0.3 -36.9 1.3 -36.9 7.8 0 30.4 -2.5 36.1 -4 14 -3.6 20.7 -8.4 24.8 -18 4.3 -10 4.8 -16.6 4.8 -67 0 -45.1 -0.1 -48.2 -2 -54.3 -4 -12.8 -12.7 -21.7 -25.2 -25.8 -5.8 -1.8 -8.4 -2.1 -17.7 -1.7 -9.8 0.4 -11.6 0.8 -17.5 3.7 -7.2 3.5 -10.9 7.4 -15.7 16.4 -5.4 10.2 -5.9 13.6 -5.9 43 l0 26.7 -42.1 0 -42.1 0 0.5 -34.2 c0.4 -33 0.5 -34.7 3 -44.3 6.2 -23.8 15.9 -41 32.6 -57.5 19.6 -19.5 43.6 -32 70.5 -36.6 14.1 -2.5 40.8 -1.5 54.1 2 31.9 8.2 63.1 34.7 78.2 66.2 7 14.8 10.3 30.9 12.4 61.1 1.3 18.6 0.6 85.2 -1.1 95.8 -4.2 27.2 -12.5 39.4 -38.7 56.6 -12.2 8 -12 7.9 -10.6 8.5 4.7 2.1 20.3 14.3 27.8 21.9 10.2 10.1 15.1 18.4 18.4 30.5 4.2 15.8 4.6 22.1 4.6 78 0 58.3 -0.9 71.4 -6 91.8 -10 39.5 -46.9 75.8 -86 84.7 -14.3 3.3 -35.9 4.3 -51.3 2.3z"/>
 </g>
</svg>